# AST/ASF file generated using VICON BodyLanguage
# -----------------------------------------------
:version 1.10
:name VICON
:units
  mass 1.0
  length 0.45
  angle deg
:documentation
   .ast/.asf automatically generated from VICON data using
   VICON BodyBuilder and BodyLanguage model FoxedUp or BRILLIANT.MOD
:root
   order TX TY TZ RX RY RZ
   axis XYZ
   position 0 0 0  
   orientation 0 0 0 
:bonedata
  begin
     id 1 
     name lhipjoint
     direction 0.64773 -0.699417 0.302095 
     length 2.48597 
     axis 0 0 0  XYZ
  end
  begin
     id 2 
     name lfemur
     direction 0.34202 -0.939693 0  
     length 6.71947  
     axis 0 0 20  XYZ
    dof rx ry rz
    limits (-160.0 20.0)
           (-70.0 70.0)
           (-60.0 70.0)
  end
  begin
     id 3 
     name ltibia
     direction 0.34202 -0.939693 0   
     length 8.08777   
     axis 0 0 20   XYZ
    dof rx
    limits (-10.0 170.0)
  end
  begin
     id 4 
     name lfoot
     direction 0.0808503 -0.222134 0.971658   
     length 2.08264   
     axis -90 7.62852e-016 20   XYZ
    dof rx rz
    limits (-45.0 90.0)
           (-70.0 20.0)
  end
  begin
     id 5 
     name ltoes
     direction 1.53502e-011 -4.22007e-011 1   
     length 1.04662   
     axis -90 7.62852e-016 20   XYZ
    dof rx
    limits (-90.0 20.0)
  end
  begin
     id 6 
     name rhipjoint
     direction -0.610924 -0.726792 0.313919   
     length 2.39233  
     axis 0 0 0  XYZ 
  end
  begin
     id 7 
     name rfemur
     direction -0.34202 -0.939693 0   
     length 6.96955   
     axis 0 0 -20   XYZ
    dof rx ry rz
    limits (-160.0 20.0)
           (-70.0 70.0)
           (-70.0 60.0)
  end
  begin
     id 8 
     name rtibia
     direction -0.34202 -0.939693 0   
     length 8.19584   
     axis 0 0 -20   XYZ
    dof rx
    limits (-10.0 170.0)
 end
 begin
     id 9 
     name rfoot
     direction -0.077777 -0.213691 0.9738   
     length 2.07539  
     axis -90 -7.62852e-016 -20   XYZ
    dof rx rz
    limits (-45.0 90.0)
           (-20.0 70.0)
  end
  begin
     id 10 
     name rtoes
     direction -1.53558e-011 -4.22006e-011 1   
     length 1.04381   
     axis -90 -7.62852e-016 -20   XYZ
    dof rx
    limits (-90.0 20.0)
  end
  begin
     id 11 
     name lowerback
     direction -0.00971646 0.996074 0.0879841   
     length 1.67643   
     axis 0 0 0   XYZ
    dof rx ry rz
    limits (-20.0 45.0)
           (-30.0 30.0)
           (-30.0 30.0)
  end
  begin
     id 12 
     name upperback
     direction 0.0127391 0.991676 0.128127   
     length 1.63741   
     axis 0 0 0   XYZ
    dof rx ry rz
    limits (-20.0 45.0)
           (-30.0 30.0)
           (-30.0 30.0)
  end
  begin
     id 13 
     name thorax
     direction 0.0167583 0.996049 0.0872067   
     length 1.65931   
     axis 0 0 0   XYZ
    dof rx ry rz
    limits (-20.0 45.0)
           (-30.0 30.0)
           (-30.0 30.0)
  end
  begin
     id 14 
     name lowerneck
     direction -0.0317829 0.998312 0.0486079   
     length 1.79021   
     axis 0 0 0   XYZ
    dof rx ry rz
    limits (-20.0 45.0)
           (-30.0 30.0)
           (-30.0 30.0)
  end
  begin
     id 15 
     name upperneck
     direction 0.0896851 0.972452 -0.215159   
     length 1.78797   
     axis 0 0 0   XYZ
    dof rx ry rz
    limits (-20.0 45.0)
           (-30.0 30.0)
           (-30.0 30.0)
  end
  begin
     id 16
     name head
     direction 0.0310949 0.996503 -0.0775582  
     length 1.81549  
     axis 0 0 0   XYZ
    dof rx ry rz
    limits (-20.0 45.0)
           (-30.0 30.0)
           (-30.0 30.0)
  end
  begin
     id 17 
     name lclavicle
     direction 0.853638 0.502051 -0.138733  
     length 3.31627  
     axis 0 0 0   XYZ
    dof ry rz
    limits (-20.0 10.0)
           (0.0 20.0)
  end
  begin
     id 18 
     name lhumerus
     direction 1 -4.48962e-011 -1.41788e-018   
     length 5.54893   
     axis 180 -30 -90   XYZ
    dof rx ry rz
    limits (-60.0 90.0)
           (-90.0 90.0)
           (-90.0 90.0)
  end
  begin
     id 19
     name lradius
     direction 1 -4.48962e-011 -4.95754e-027   
     length 3.02898   
     axis 180 -30 -90   XYZ
    dof rx
    limits (-10.0 170.0)
  end
  begin
     id 20
     name lwrist
     direction 1 -4.48952e-011 -1.03764e-026   
     length 1.51449   
     axis 9.09556e-015 90 90   XYZ
    dof ry
    limits (-180.0 0.0)
 end
  begin
     id 21 
     name lhand
     direction 1 -4.4902e-011 -2.07528e-026   
     length 0.640951   
     axis 1.3242e-014 90 90   XYZ
    dof rx rz
    limits (-90.0 90.0)
           (-45.0 45.0)
  end
  begin
     id 22 
     name lfingers
     direction 1 -4.49014e-011 -4.15056e-026   
     length 0.516751   
     axis 2.64841e-014 90 90   XYZ
    dof rx
    limits (0.0 90.0)
  end
  begin
     id 23
     name lthumb
     direction 0.707107 -6.35008e-011 0.707107   
     length 0.741954   
     axis -90 45 2.85299e-015   XYZ
    dof rx rz
    limits (-45.0 45.0)
           (-45.0 45.0)
  end
  begin
     id 24 
     name rclavicle
     direction -0.888531 0.455324 -0.0565039   
     length 3.20126  
     axis 0 0 0   XYZ 
    dof ry rz
    limits (-10.0 20.0)
           (-20.0 0.0)
  end
  begin
     id 25 
     name rhumerus
     direction -1 -4.48946e-011 -8.98298e-028  
     length 5.3519   
     axis 180 30 90   XYZ
    dof rx ry rz
    limits (-90.0 60.0)
           (-90.0 90.0)
           (-90.0 90.0)
  end
  begin
     id 26 
     name rradius
     direction -1 -4.4899e-011 -3.18779e-027   
     length 3.02531   
     axis 180 30 90   XYZ
    dof rx
    limits (-10.0 170.0)
  end
  begin
     id 27 
     name rwrist
     direction -1 -4.4897e-011 -1.03764e-026   
     length 1.51266   
     axis 9.09556e-015 -90 -90   XYZ
    dof ry
    limits (-180.0 0.0)
  end
  begin
     id 28
     name rhand
     direction -1 -4.48941e-011 -2.07528e-026   
     length 0.78389   
     axis 1.3242e-014 -90 -90   XYZ
    dof rx rz
    limits (-90.0 90.0)
           (-45.0 45.0)
  end
  begin
     id 29
     name rfingers
     direction -1 -4.49012e-011 -4.15056e-026   
     length 0.631992   
     axis 2.64841e-014 -90 -90   XYZ
    dof rx
    limits (0.0 90.0)
  end
  begin
     id 30
     name rthumb
     direction -0.707107 -6.3496e-011 0.707107   
     length 0.907418   
     axis -90 -45 -2.85299e-015   XYZ
    dof rx rz
    limits (-45.0 45.0)
           (-45.0 45.0)
  end
:hierarchy
  begin
    root lhipjoint rhipjoint lowerback
    lhipjoint lfemur
    lfemur ltibia
    ltibia lfoot
    lfoot ltoes
    rhipjoint rfemur
    rfemur rtibia
    rtibia rfoot
    rfoot rtoes
    lowerback upperback
    upperback thorax
    thorax lowerneck lclavicle rclavicle
    lowerneck upperneck
    upperneck head
    lclavicle lhumerus
    lhumerus lradius
    lradius lwrist
    lwrist lhand lthumb
    lhand lfingers
    rclavicle rhumerus
    rhumerus rradius
    rradius rwrist
    rwrist rhand rthumb
    rhand rfingers
  end

#!OML:ASF E:\Style3\Style3.ASF
:FULLY-SPECIFIED
:DEGREES
108
root -0.581817 17.8077 0.484239 -165 51.1825 -179.577
lowerback -5.46233 3.0355 0.0684908
upperback -12.9158 5.48906 1.13039
thorax -10.8694 3.30784 0.850029
lowerneck -11.0284 -0.768247 -4.11462
upperneck 17.039 -1.30387 7.23852
head 7.09714 -0.113765 2.9347
rclavicle 8.8161e-014 4.49253e-014
rhumerus 23.5935 38.0374 -48.7286
rradius 132.882
rwrist -28.2104
rhand 26.0506 5.80837
rfingers 7.12502
rthumb 50.1239 -15.3491
lclavicle 8.8161e-014 4.49253e-014
lhumerus -1.46488 -31.2553 61.8688
lradius 126.847
lwrist 13.6661
lhand 19.0876 35.9914
lfingers 7.12502
lthumb 43.6842 59.991
rfemur -9.15705 1.26977 22.9667
rtibia 11.1416
rfoot -24.8654 -37.8589
rtoes 7.19473
lfemur -27.0634 -43.9508 2.52674
ltibia 4.90901
lfoot -0.553818 19.196
ltoes -25.8924
109
root -0.594941 17.8054 0.478823 -165.037 51.0738 -179.652
lowerback -5.29774 3.01722 0.188083
upperback -12.9318 5.45819 1.05288
thorax -10.9644 3.27226 0.689403
lowerneck -10.9557 -0.678254 -3.82678
upperneck 16.7108 -1.21876 7.1768
head 6.97158 -0.0699461 2.86728
rclavicle -1.23246e-014 -1.35174e-014
rhumerus 23.5159 35.9297 -49.8928
rradius 133.184
rwrist -28.0799
rhand 22.5608 5.48668
rfingers 7.12502
rthumb 46.9128 -17.2178
lclavicle -1.23246e-014 -1.35174e-014
lhumerus -2.59729 -33.6638 62.631
lradius 127.211
lwrist 15.8339
lhand 21.4993 36.3574
lfingers 7.12502
lthumb 45.9291 59.4814
rfemur -9.2527 1.26104 22.8959
rtibia 11.2536
rfoot -24.9796 -37.9346
rtoes 7.32945
lfemur -27.2231 -44.0925 2.60481
ltibia 4.88294
lfoot -0.376158 19.1628
ltoes -26.5722
110
root -0.605066 17.8043 0.474668 -164.989 50.9996 -179.594
lowerback -5.17214 3.00101 0.309096
upperback -12.9309 5.43472 1.04227
thorax -11.0247 3.24483 0.603169
lowerneck -10.9791 -0.598273 -3.68388
upperneck 16.5598 -1.13674 7.20054
head 6.92181 -0.0234006 2.85579
rclavicle -3.81667e-014 -5.96354e-015
rhumerus 23.6235 34.2153 -50.921
rradius 132.924
rwrist -27.1193
rhand 17.9334 5.2483
rfingers 7.12502
rthumb 42.6052 -19.1357
lclavicle -3.81667e-014 -5.96354e-015
lhumerus -3.57186 -35.4147 63.4158
lradius 127.885
lwrist 18.3711
lhand 23.8075 37.4161
lfingers 7.12502
lthumb 48.0641 59.599
rfemur -9.30372 1.34353 22.9167
rtibia 11.3206
rfoot -24.9977 -38.0928
rtoes 7.5078
lfemur -27.3454 -44.1828 2.73755
ltibia 4.87079
lfoot -0.360186 19.1746
ltoes -26.5674
111
root -0.613768 17.8048 0.471655 -165.016 50.946 -179.529
lowerback -4.964 2.96101 0.396771
upperback -12.9142 5.37962 1.08327
thorax -11.1243 3.2057 0.586375
lowerneck -10.9513 -0.515919 -3.62782
upperneck 16.4311 -1.03225 7.19566
head 6.86909 0.0254361 2.85162
rclavicle -4.69132e-014 1.59028e-015
rhumerus 23.8543 33.0376 -51.5713
rradius 132.262
rwrist -25.1989
rhand 12.6335 5.34557
rfingers 7.12502
rthumb 37.6196 -20.5561
lclavicle -4.69132e-014 1.59028e-015
lhumerus -4.40248 -36.2846 64.1877
lradius 128.723
lwrist 20.7255
lhand 26.0866 38.5169
lfingers 7.12502
lthumb 50.1568 59.6569
rfemur -9.27766 1.51437 22.9188
rtibia 11.3834
rfoot -25.1506 -38.2315
rtoes 7.71267
lfemur -27.2968 -44.2933 2.76683
ltibia 4.81971
lfoot -0.333712 19.2422
ltoes -26.428
112
root -0.621783 17.807 0.466268 -164.997 50.8926 -179.494
lowerback -4.84099 2.93032 0.51034
upperback -12.9405 5.34532 1.09468
thorax -11.219 3.17702 0.526833
lowerneck -10.9602 -0.460284 -3.62669
upperneck 16.4301 -0.959071 7.2122
head 6.86603 0.062018 2.86342
rclavicle 1.03467e-013 4.96962e-014
rhumerus 23.998 32.2812 -51.9007
rradius 131.414
rwrist -22.5821
rhand 7.70557 5.42729
rfingers 7.12502
rthumb 32.947 -21.5841
lclavicle 1.03467e-013 4.96962e-014
lhumerus -4.9668 -36.5558 64.8631
lradius 129.745
lwrist 22.942
lhand 27.7928 39.5636
lfingers 7.12502
lthumb 51.7121 59.8387
rfemur -9.31047 1.66681 22.8739
rtibia 11.4065
rfoot -25.3872 -38.2709
rtoes 8.27948
lfemur -27.3222 -44.3893 2.82053
ltibia 4.78802
lfoot -0.442616 19.3656
ltoes -25.9834
113
root -0.63313 17.8091 0.4606 -164.989 50.8521 -179.56
lowerback -4.80005 2.92661 0.61385
upperback -12.9762 5.34329 1.03854
thorax -11.27 3.1627 0.404892
lowerneck -11.0536 -0.450564 -3.63344
upperneck 16.522 -0.956655 7.28313
head 6.9122 0.0730259 2.8903
rclavicle 3.70733e-014 3.06128e-014
rhumerus 24.1823 31.737 -52.0177
rradius 130.241
rwrist -19.1958
rhand 4.3694 5.79355
rfingers 7.12502
rthumb 29.7683 -21.8354
lclavicle 3.70733e-014 3.06128e-014
lhumerus -5.11924 -36.266 65.199
lradius 130.918
lwrist 25.2683
lhand 29.3572 40.5327
lfingers 7.12502
lthumb 53.1281 59.9436
rfemur -9.42748 1.65717 22.7807
rtibia 11.452
rfoot -25.4003 -38.3251
rtoes 8.43756
lfemur -27.3835 -44.4747 2.84117
ltibia 4.64675
lfoot -0.429937 19.4884
ltoes -25.6931
114
root -0.641738 17.8103 0.456184 -164.911 50.785 -179.542
lowerback -4.81524 2.95233 0.766046
upperback -13.0106 5.38131 0.965008
thorax -11.2803 3.16338 0.240161
lowerneck -11.1345 -0.472682 -3.63578
upperneck 16.6111 -0.993934 7.32598
head 6.95766 0.062703 2.90359
rclavicle -6.69904e-014 -3.57812e-014
rhumerus 24.2912 31.4278 -51.9867
rradius 128.829
rwrist -14.8059
rhand 3.01021 6.28551
rfingers 7.12502
rthumb 28.4703 -21.5681
lclavicle -6.69904e-014 -3.57812e-014
lhumerus -4.8415 -35.3632 65.2135
lradius 132.15
lwrist 27.3416
lhand 30.3716 41.238
lfingers 7.12502
lthumb 54.0408 60.0484
rfemur -9.53031 1.62105 22.7759
rtibia 11.4801
rfoot -25.2484 -38.4218
rtoes 8.21155
lfemur -27.4772 -44.5586 2.95646
ltibia 4.48907
lfoot -0.252114 19.5613
ltoes -25.7473
115
root -0.645889 17.8138 0.455198 -164.943 50.7391 -179.601
lowerback -4.7907 2.98052 0.750299
upperback -13.0528 5.42259 0.903957
thorax -11.3398 3.18316 0.176637
lowerneck -11.2421 -0.485161 -3.65885
upperneck 16.8512 -1.01737 7.38365
head 7.05587 0.064371 2.92973
rclavicle -5.725e-014 -4.05521e-014
rhumerus 24.2962 31.3519 -51.8743
rradius 127.375
rwrist -10.2056
rhand 3.13202 6.0678
rfingers 7.12502
rthumb 28.5867 -21.7663
lclavicle -5.725e-014 -4.05521e-014
lhumerus -4.23059 -33.9826 64.9909
lradius 133.299
lwrist 28.8065
lhand 29.4931 41.5108
lfingers 7.12502
lthumb 53.2507 60.8432
rfemur -9.56891 1.667 22.7267
rtibia 11.498
rfoot -25.2416 -38.4982
rtoes 8.3231
lfemur -27.4713 -44.6508 2.98028
ltibia 4.31586
lfoot -0.215778 19.6359
ltoes -25.3764
116
root -0.647474 17.8167 0.455369 -164.897 50.6753 -179.567
lowerback -4.80562 2.99101 0.740341
upperback -13.1004 5.44647 0.886947
thorax -11.3868 3.19855 0.160434
lowerneck -11.3486 -0.485487 -3.77477
upperneck 17.1111 -1.01765 7.50135
head 7.15956 0.0772068 2.99402
rclavicle 1.55052e-014 -7.15625e-015
rhumerus 24.2548 31.4465 -51.6823
rradius 126.056
rwrist -6.60749
rhand 4.7694 5.43171
rfingers 7.12502
rthumb 30.15 -22.1283
lclavicle 1.55052e-014 -7.15625e-015
lhumerus -3.37852 -32.2317 64.4973
lradius 134.318
lwrist 29.2562
lhand 27.7392 40.7499
lfingers 7.12502
lthumb 51.6634 61.0534
rfemur -9.57138 1.76139 22.7527
rtibia 11.469
rfoot -25.3809 -38.5674
rtoes 8.4629
lfemur -27.4593 -44.7412 3.07488
ltibia 4.13607
lfoot -0.105195 19.6856
ltoes -25.5572
117
root -0.648342 17.8173 0.453877 -164.927 50.6113 -179.602
lowerback -4.84373 2.90611 0.651557
upperback -13.1371 5.34691 0.970498
thorax -11.4237 3.16837 0.303606
lowerneck -11.3455 -0.434631 -4.0289
upperneck 17.3072 -0.929266 7.6575
head 7.21793 0.123129 3.10084
rclavicle 7.76254e-014 3.57812e-015
rhumerus 24.4276 32.1462 -51.1652
rradius 124.883
rwrist -4.94337
rhand 7.55667 5.0027
rfingers 7.12502
rthumb 32.8054 -22.0384
lclavicle 7.76254e-014 3.57812e-015
lhumerus -2.50285 -29.972 63.8638
lradius 135.184
lwrist 28.7394
lhand 25.2468 40.1902
lfingers 7.12502
lthumb 49.3877 61.7286
rfemur -9.53984 1.8261 22.7318
rtibia 11.4376
rfoot -25.4996 -38.6443
rtoes 8.69242
lfemur -27.3171 -44.8767 3.04338
ltibia 3.86384
lfoot 0.166062 19.7764
ltoes -25.9463
118
root -0.649126 17.8182 0.452526 -164.977 50.5488 -179.65
lowerback -4.85494 2.86827 0.572245
upperback -13.1879 5.30647 0.978836
thorax -11.4847 3.16106 0.355277
lowerneck -11.3292 -0.419275 -4.16056
upperneck 17.4133 -0.908109 7.80022
head 7.24871 0.1416 3.17461
rclavicle -4.79071e-014 -9.93923e-015
rhumerus 24.4689 33.2565 -50.4082
rradius 123.915
rwrist -5.40315
rhand 10.6916 4.63279
rfingers 7.12502
rthumb 35.782 -21.737
lclavicle -4.79071e-014 -9.93923e-015
lhumerus -1.36537 -27.6367 63.0456
lradius 135.709
lwrist 27.7554
lhand 22.9094 39.9661
lfingers 7.12502
lthumb 47.2351 62.528
rfemur -9.49525 1.94173 22.6966
rtibia 11.3949
rfoot -25.6586 -38.7548
rtoes 8.91928
lfemur -27.1227 -45.0236 2.97525
ltibia 3.5474
lfoot 0.305034 19.8709
ltoes -25.6613
119
root -0.648342 17.8197 0.45256 -165.051 50.5153 -179.731
lowerback -4.85628 3.00095 0.429614
upperback -13.2277 5.47696 0.810424
thorax -11.5278 3.25045 0.241468
lowerneck -11.5054 -0.577234 -4.06233
upperneck 17.5441 -1.15235 7.86114
head 7.3391 0.0449496 3.15954
rclavicle 7.03698e-014 1.63003e-014
rhumerus 24.1353 34.2712 -49.574
rradius 123.233
rwrist -7.22693
rhand 13.3626 4.27041
rfingers 7.12502
rthumb 38.3082 -21.4443
lclavicle 7.03698e-014 1.63003e-014
lhumerus 0.221083 -25.5854 62.0825
lradius 135.873
lwrist 26.8014
lhand 20.9537 39.5014
lfingers 7.12502
lthumb 45.4225 62.8326
rfemur -9.47739 2.01632 22.6386
rtibia 11.3945
rfoot -25.7239 -38.8514
rtoes 8.78997
lfemur -26.7388 -45.1701 2.81149
ltibia 3.00172
lfoot 0.408425 19.9553
ltoes -25.1794
120
root -0.645649 17.8209 0.451745 -165.182 50.5074 -179.841
lowerback -4.84833 3.23068 0.268188
upperback -13.2672 5.76828 0.532842
thorax -11.5665 3.39308 0.0139347
lowerneck -11.5544 -0.820729 -3.78395
upperneck 17.5269 -1.53431 7.86321
head 7.36648 -0.114808 3.07701
rclavicle -1.04263e-013 -1.90833e-014
rhumerus 23.4971 35.1808 -48.8706
rradius 122.904
rwrist -9.39054
rhand 15.6407 3.89428
rfingers 7.12502
rthumb 40.4544 -21.1931
lclavicle -1.04263e-013 -1.90833e-014
lhumerus 1.91859 -23.608 61.1828
lradius 135.802
lwrist 26.2216
lhand 18.8714 39.3979
lfingers 7.12502
lthumb 43.4823 63.4712
rfemur -9.40688 2.05248 22.5636
rtibia 11.3963
rfoot -25.8552 -38.8366
rtoes 8.9816
lfemur -26.1432 -45.3339 2.51521
ltibia 2.28552
lfoot 0.798407 19.9502
ltoes -25.5705
121
root -0.641198 17.8206 0.448175 -165.244 50.4989 -179.917
lowerback -4.9707 3.30569 0.0785938
upperback -13.2912 5.87275 0.495919
thorax -11.5381 3.46703 0.0807046
lowerneck -11.4926 -0.849592 -3.80259
upperneck 17.4608 -1.56746 7.85657
head 7.33614 -0.134843 3.07316
rclavicle -1.88845e-014 -7.95139e-016
rhumerus 23.3253 36.6164 -48.0154
rradius 122.761
rwrist -11.1382
rhand 17.396 4.10869
rfingers 7.12502
rthumb 42.102 -20.4471
lclavicle -1.88845e-014 -7.95139e-016
lhumerus 3.02041 -21.1496 60.6543
lradius 135.41
lwrist 26.0246
lhand 17.3131 39.6005
lfingers 7.12502
lthumb 42.0243 64.1824
rfemur -9.37444 1.96413 22.5113
rtibia 11.3991
rfoot -25.952 -38.7053
rtoes 9.08697
lfemur -25.4187 -45.5026 2.19467
ltibia 1.34439
lfoot 1.31682 19.9949
ltoes -26.0828
